<svg width="122" height="113" viewBox="0 0 122 113" fill="none" xmlns="http://www.w3.org/2000/svg">
<path d="M104.67 39.2368C96.4861 33.2575 84.2859 31.8425 76.3211 38.1419C70.0032 43.1247 67.1477 51.9885 59.991 55.6697C52.0799 59.7113 42.6758 55.8093 33.8423 54.8569C24.8427 53.8967 15.1122 56.477 8.90036 63.1056C2.68852 69.7342 0.887314 80.6293 6.00869 88.1612C10.4134 94.7149 18.552 97.4455 26.1066 99.7645L56.9412 109.226C65.0293 111.702 73.5872 114.235 81.835 112.336C91.7218 110.093 99.1082 102.086 105.825 94.4874C111.866 87.655 122.198 77.0617 121.897 67.1091C121.604 57.5777 112.179 44.6731 104.67 39.2368Z" fill="#ECF2FD"/>
<path fill-rule="evenodd" clip-rule="evenodd" d="M34.9901 91.2527C35.2029 94.1132 30.5191 92.9069 30.7702 91.0518C31.0201 89.2045 34.4734 89.8453 34.9901 91.2527Z" fill="#8BB3FD"/>
<path fill-rule="evenodd" clip-rule="evenodd" d="M32.5355 81.5233C32.6563 82.8078 31.0288 83.0099 30.7893 81.9696C30.4749 80.6037 32.166 80.6156 32.5355 81.5233Z" fill="#8BB3FD"/>
<path fill-rule="evenodd" clip-rule="evenodd" d="M32.3244 86.1675C32.4658 87.9545 30.0599 88.2822 29.7375 86.7129C29.3709 84.9279 31.7378 84.5244 32.3244 86.1675Z" fill="#8BB3FD"/>
<path fill-rule="evenodd" clip-rule="evenodd" d="M31.3515 76.7033C31.5344 79.1464 28.6551 79.4708 28.1778 77.3889C27.6646 75.1498 30.4345 73.8727 31.3515 76.7033Z" fill="#8BB3FD"/>
<path fill-rule="evenodd" clip-rule="evenodd" d="M31.5776 97.3864C31.6697 99.7706 27.8593 99.3167 28.121 97.1538C28.3646 95.1432 31.1031 95.7418 31.5776 97.3864Z" fill="#8BB3FD"/>
<path fill-rule="evenodd" clip-rule="evenodd" d="M30.6303 104.586C30.7611 106.369 28.3684 106.503 28.0814 104.944C27.7729 103.269 30.0993 102.944 30.6303 104.586Z" fill="#8BB3FD"/>
<path fill-rule="evenodd" clip-rule="evenodd" d="M29.0896 93.678C29.1836 95.4745 26.6454 95.946 26.2988 94.2313C25.9254 92.3847 28.5357 91.8469 29.0896 93.678Z" fill="#8BB3FD"/>
<path fill-rule="evenodd" clip-rule="evenodd" d="M26.2541 83.2111C26.4015 85.1475 23.3664 85.319 23.0111 83.7125C22.5123 81.4584 25.6609 81.6677 26.2541 83.2111Z" fill="#8BB3FD"/>
<path fill-rule="evenodd" clip-rule="evenodd" d="M25.7648 77.6911C25.7558 79.5152 23.1737 79.6117 22.8938 77.9224C22.5878 76.0763 25.2399 75.8716 25.7648 77.6911Z" fill="#8BB3FD"/>
<path fill-rule="evenodd" clip-rule="evenodd" d="M25.8768 87.6925C26.0217 89.4764 23.734 89.7742 23.3166 88.3297C22.7988 86.5373 25.2936 85.9604 25.8768 87.6925Z" fill="#8BB3FD"/>
<path fill-rule="evenodd" clip-rule="evenodd" d="M25.6869 99.4871C25.8084 101.229 23.4664 101.38 23.1626 99.8903C22.8066 98.1438 25.1515 97.8298 25.6869 99.4871Z" fill="#8BB3FD"/>
<path fill-rule="evenodd" clip-rule="evenodd" d="M24.1042 91.5938C24.2194 93.0083 22.3708 93.1544 22.1285 91.9566C21.8559 90.611 23.672 90.3445 24.1042 91.5938Z" fill="#8BB3FD"/>
<path fill-rule="evenodd" clip-rule="evenodd" d="M21.9759 73.558C22.0961 74.908 20.3681 75.1008 20.116 73.9855C19.8161 72.6596 21.5279 72.4381 21.9759 73.558Z" fill="#8BB3FD"/>
<path fill-rule="evenodd" clip-rule="evenodd" d="M21.1476 93.578C21.324 95.9781 17.9764 96.0598 17.589 94.1618C17.1151 91.8414 20.4147 91.5866 21.1476 93.578Z" fill="#8BB3FD"/>
<path fill-rule="evenodd" clip-rule="evenodd" d="M19.9185 88.3013C20.0487 89.9035 17.9284 90.0441 17.6639 88.6697C17.3534 87.057 19.4276 86.9208 19.9185 88.3013Z" fill="#8BB3FD"/>
<path fill-rule="evenodd" clip-rule="evenodd" d="M19.3709 78.8383C19.5137 80.6208 17.1933 80.8733 16.8522 79.381C16.4535 77.6367 18.7818 77.2214 19.3709 78.8383Z" fill="#8BB3FD"/>
<path fill-rule="evenodd" clip-rule="evenodd" d="M18.7905 84.6955C18.9373 86.7887 15.9073 87.0716 15.5422 85.1043C15.1256 82.8599 18.1664 83.0565 18.7905 84.6955Z" fill="#8BB3FD"/>
<path fill-rule="evenodd" clip-rule="evenodd" d="M18.974 97.6363C19.1225 99.4599 16.6953 99.5961 16.3851 98.1118C16.0077 96.3061 18.4114 96.1167 18.974 97.6363Z" fill="#8BB3FD"/>
<path fill-rule="evenodd" clip-rule="evenodd" d="M16.7886 74.9327C16.9454 77.0583 14.0735 77.9194 13.514 75.8542C12.9867 73.908 16.051 72.9275 16.7886 74.9327Z" fill="#8BB3FD"/>
<path fill-rule="evenodd" clip-rule="evenodd" d="M15.8205 89.8992C15.9968 92.1672 12.0641 91.3162 12.2499 89.5331C12.3207 88.855 13.0856 88.2348 13.843 88.6583C14.0225 88.7977 14.202 88.9373 14.3816 89.0767C15.2357 89.2865 15.4958 89.0618 15.8205 89.8992Z" fill="#8BB3FD"/>
<path fill-rule="evenodd" clip-rule="evenodd" d="M14.7183 80.8057C14.843 82.2837 12.8855 82.4613 12.6243 81.2141C12.3206 79.7636 14.2553 79.49 14.7183 80.8057Z" fill="#8BB3FD"/>
<path fill-rule="evenodd" clip-rule="evenodd" d="M13.1145 85.0289C13.1435 85.9602 11.6727 86.9936 11.1749 85.8723C10.3722 84.0642 12.5166 83.8529 13.1145 85.0289Z" fill="#8BB3FD"/>
<path fill-rule="evenodd" clip-rule="evenodd" d="M13.4405 95.2333C13.5994 97.3453 10.4041 96.9695 10.582 95.2088C10.7634 93.4116 13.0025 93.9291 13.4405 95.2333Z" fill="#8BB3FD"/>
<path fill-rule="evenodd" clip-rule="evenodd" d="M11.8498 74.2232C11.9948 76.1036 9.51378 76.2649 9.19048 74.6552C8.83553 72.8883 11.2915 72.5156 11.8498 74.2232Z" fill="#8BB3FD"/>
<path fill-rule="evenodd" clip-rule="evenodd" d="M9.46066 81.4307C9.60078 83.1347 7.43902 83.4365 7.03542 82.0391C6.5448 80.3403 8.86638 79.8165 9.46066 81.4307Z" fill="#8BB3FD"/>
<path fill-rule="evenodd" clip-rule="evenodd" d="M8.95954 92.5898C9.1431 94.9539 5.52363 94.2389 5.75448 92.3937C5.99507 90.4707 8.47471 91.1732 8.95954 92.5898Z" fill="#8BB3FD"/>
<path fill-rule="evenodd" clip-rule="evenodd" d="M8.44508 88.3152C8.61022 91.0242 4.15327 89.8399 4.53805 87.5907C4.97405 85.0429 7.96672 86.812 8.44508 88.3152Z" fill="#8BB3FD"/>
<path d="M88.0903 88.5806L24.2941 88.4988C24.2941 86.3185 24.1814 81.9574 24.1814 79.7767C24.1814 77.5974 24.3097 77.5974 24.3097 75.4184C24.3097 73.2384 24.145 73.2384 24.145 71.0588C24.145 68.8798 24.2009 68.8798 24.2009 66.7009C24.2009 64.5223 24.3094 64.5223 24.3094 62.344C24.3094 60.1651 24.2178 60.1651 24.2178 57.9858C24.2178 55.8065 24.3016 55.8065 24.3016 53.6275C24.3016 51.4489 24.3965 51.4489 24.3965 49.27C24.3965 47.0907 24.2288 47.0907 24.2288 44.9114C24.2288 43.5234 24.8174 42.2874 25.6614 41.3757C26.5055 40.4636 27.6498 40.0165 28.9352 40.0165C30.7127 40.0165 30.7127 39.9688 32.4901 39.9688C34.2676 39.9688 34.2676 39.9663 36.0451 39.9663C37.8212 39.9663 37.8212 39.8828 39.5974 39.8828C41.3742 39.8828 41.3742 39.7933 43.151 39.7933L69.2136 39.8986C70.9907 39.8986 70.9911 39.9505 72.7682 39.9505C74.5453 39.9505 74.5453 39.7768 76.3228 39.7768C78.099 39.7768 78.099 39.9155 79.8751 39.9155C81.6516 39.9155 81.6516 39.7375 83.4284 39.7375C84.7141 39.7375 85.9306 40.3857 86.775 41.2978C87.619 42.2099 88.0546 43.5238 88.0546 44.9121C88.0546 47.0928 88.1462 47.0928 88.1462 49.2731C88.1462 51.4535 88.0624 51.4535 88.0624 53.6342C88.0624 55.8131 87.9674 55.8131 87.9674 57.9921C87.9674 60.1717 88.1352 60.1717 88.1352 62.3514C88.1352 64.5303 88.0604 64.5303 88.0604 66.7093C88.0604 68.8879 87.96 68.8879 87.96 71.0661C87.96 73.2455 88.0042 73.2455 88.0042 75.4244C88.0042 77.6037 88.0064 77.6037 88.0064 79.7827C88.0064 81.9613 88.0903 86.4016 88.0903 88.5806Z" fill="#89E2F2"/>
<g clip-path="url(#clip0)">
<mask id="path-30-inside-1" fill="white">
<path d="M110.883 54.0672C109.372 54.0672 108.583 53.4212 107.888 52.851C107.222 52.3051 106.593 51.7895 105.325 51.7895C104.058 51.7895 103.428 52.3051 102.762 52.851C102.067 53.4212 101.278 54.0672 99.7668 54.0672C98.2554 54.0672 97.467 53.4212 96.7715 52.851C96.1055 52.3051 95.4765 51.7895 94.2091 51.7895C92.9417 51.7895 92.3126 52.3051 91.6465 52.851C90.9511 53.421 90.1627 54.0672 88.6513 54.0672C87.1398 54.0672 86.3517 53.4212 85.656 52.851C84.9897 52.3051 84.3608 51.7895 83.0934 51.7895V51.1062C84.6048 51.1062 85.393 51.7522 86.0887 52.3224C86.7547 52.8683 87.3837 53.3839 88.6511 53.3839C89.9185 53.3839 90.5476 52.8683 91.2136 52.3224C91.9091 51.7522 92.6975 51.1062 94.2089 51.1062C95.7204 51.1062 96.5087 51.7522 97.2042 52.3224C97.8703 52.8683 98.4992 53.3839 99.7668 53.3839C101.034 53.3839 101.664 52.8683 102.33 52.3224C103.025 51.7522 103.813 51.1062 105.325 51.1062C106.837 51.1062 107.625 51.7522 108.32 52.3224C108.986 52.8683 109.616 53.3839 110.883 53.3839V54.0672H110.883Z"/>
</mask>
<path d="M110.883 54.0672C109.372 54.0672 108.583 53.4212 107.888 52.851C107.222 52.3051 106.593 51.7895 105.325 51.7895C104.058 51.7895 103.428 52.3051 102.762 52.851C102.067 53.4212 101.278 54.0672 99.7668 54.0672C98.2554 54.0672 97.467 53.4212 96.7715 52.851C96.1055 52.3051 95.4765 51.7895 94.2091 51.7895C92.9417 51.7895 92.3126 52.3051 91.6465 52.851C90.9511 53.421 90.1627 54.0672 88.6513 54.0672C87.1398 54.0672 86.3517 53.4212 85.656 52.851C84.9897 52.3051 84.3608 51.7895 83.0934 51.7895V51.1062C84.6048 51.1062 85.393 51.7522 86.0887 52.3224C86.7547 52.8683 87.3837 53.3839 88.6511 53.3839C89.9185 53.3839 90.5476 52.8683 91.2136 52.3224C91.9091 51.7522 92.6975 51.1062 94.2089 51.1062C95.7204 51.1062 96.5087 51.7522 97.2042 52.3224C97.8703 52.8683 98.4992 53.3839 99.7668 53.3839C101.034 53.3839 101.664 52.8683 102.33 52.3224C103.025 51.7522 103.813 51.1062 105.325 51.1062C106.837 51.1062 107.625 51.7522 108.32 52.3224C108.986 52.8683 109.616 53.3839 110.883 53.3839V54.0672H110.883Z" fill="black"/>
<path d="M107.888 52.851L108.522 52.0777L108.522 52.0776L107.888 52.851ZM102.762 52.851L102.128 52.0776L102.128 52.0777L102.762 52.851ZM96.7715 52.851L97.4055 52.0777L97.4054 52.0776L96.7715 52.851ZM91.6465 52.851L92.2804 53.6244L92.2804 53.6244L91.6465 52.851ZM85.656 52.851L86.2899 52.0776L86.2898 52.0775L85.656 52.851ZM83.0934 51.7895H82.0934V52.7895H83.0934V51.7895ZM83.0934 51.1062V50.1062H82.0934V51.1062H83.0934ZM86.0887 52.3224L85.4548 53.0958L85.4548 53.0958L86.0887 52.3224ZM91.2136 52.3224L91.8475 53.0958L91.8477 53.0957L91.2136 52.3224ZM97.2042 52.3224L96.5702 53.0957L96.5703 53.0958L97.2042 52.3224ZM102.33 52.3224L102.964 53.0958L102.964 53.0957L102.33 52.3224ZM108.32 52.3224L107.686 53.0957L107.686 53.0958L108.32 52.3224ZM110.883 53.3839H111.883V52.3839H110.883V53.3839ZM110.883 54.0672H109.883V55.0672H110.883V54.0672ZM110.883 53.0672C109.738 53.0672 109.183 52.6197 108.522 52.0777L107.254 53.6243C107.984 54.2227 109.005 55.0672 110.883 55.0672V53.0672ZM108.522 52.0776C108.201 51.8143 107.792 51.4746 107.275 51.219C106.734 50.9516 106.107 50.7895 105.325 50.7895V52.7895C105.81 52.7895 106.132 52.8852 106.389 53.0121C106.67 53.1508 106.909 53.3418 107.254 53.6244L108.522 52.0776ZM105.325 50.7895C104.543 50.7895 103.916 50.9516 103.375 51.219C102.858 51.4746 102.45 51.8143 102.128 52.0776L103.396 53.6244C103.741 53.3418 103.98 53.1508 104.261 53.0121C104.518 52.8852 104.84 52.7895 105.325 52.7895V50.7895ZM102.128 52.0777C101.467 52.6197 100.912 53.0672 99.7668 53.0672V55.0672C101.645 55.0672 102.666 54.2227 103.396 53.6243L102.128 52.0777ZM99.7668 53.0672C98.6219 53.0672 98.0667 52.6197 97.4055 52.0777L96.1375 53.6243C96.8673 54.2226 97.8888 55.0672 99.7668 55.0672V53.0672ZM97.4054 52.0776C97.0843 51.8143 96.676 51.4746 96.1589 51.219C95.6176 50.9516 94.9914 50.7895 94.2091 50.7895V52.7895C94.6943 52.7895 95.0162 52.8852 95.2728 53.012C95.5535 53.1508 95.7928 53.3417 96.1376 53.6244L97.4054 52.0776ZM94.2091 50.7895C93.4269 50.7895 92.8006 50.9516 92.2594 51.219C91.7421 51.4746 91.3339 51.8143 91.0126 52.0776L92.2804 53.6244C92.6253 53.3418 92.8646 53.1508 93.1453 53.0121C93.402 52.8852 93.724 52.7895 94.2091 52.7895V50.7895ZM91.0127 52.0776C90.3513 52.6196 89.7961 53.0672 88.6513 53.0672V55.0672C90.5293 55.0672 91.5509 54.2224 92.2804 53.6244L91.0127 52.0776ZM88.6513 53.0672C87.5064 53.0672 86.9514 52.6198 86.2899 52.0776L85.0221 53.6244C85.7519 54.2226 86.7732 55.0672 88.6513 55.0672V53.0672ZM86.2898 52.0775C85.9685 51.8143 85.5603 51.4746 85.0431 51.219C84.5019 50.9516 83.8756 50.7895 83.0934 50.7895V52.7895C83.5786 52.7895 83.9005 52.8852 84.1571 53.0121C84.4379 53.1508 84.6772 53.3418 85.0222 53.6245L86.2898 52.0775ZM84.0934 51.7895V51.1062H82.0934V51.7895H84.0934ZM83.0934 52.1062C84.2382 52.1062 84.7932 52.5536 85.4548 53.0958L86.7226 51.549C85.9927 50.9508 84.9714 50.1062 83.0934 50.1062V52.1062ZM85.4548 53.0958C85.7759 53.359 86.1842 53.6988 86.7013 53.9544C87.2425 54.2218 87.8688 54.3839 88.6511 54.3839V52.3839C88.1659 52.3839 87.844 52.2882 87.5874 52.1613C87.3067 52.0226 87.0674 51.8317 86.7226 51.549L85.4548 53.0958ZM88.6511 54.3839C89.4333 54.3839 90.0596 54.2218 90.6008 53.9544C91.1181 53.6988 91.5263 53.3591 91.8475 53.0958L90.5798 51.549C90.2349 51.8316 89.9956 52.0226 89.7149 52.1613C89.4582 52.2882 89.1362 52.3839 88.6511 52.3839V54.3839ZM91.8477 53.0957C92.5088 52.5537 93.0641 52.1062 94.2089 52.1062V50.1062C92.3309 50.1062 91.3094 50.9507 90.5796 51.5491L91.8477 53.0957ZM94.2089 52.1062C95.3538 52.1062 95.909 52.5537 96.5702 53.0957L97.8382 51.5491C97.1084 50.9507 96.0869 50.1062 94.2089 50.1062V52.1062ZM96.5703 53.0958C96.8915 53.3591 97.2997 53.6988 97.8169 53.9544C98.3582 54.2218 98.9845 54.3839 99.7668 54.3839V52.3839C99.2815 52.3839 98.9596 52.2881 98.7029 52.1613C98.4222 52.0226 98.183 51.8316 97.8381 51.549L96.5703 53.0958ZM99.7668 54.3839C100.549 54.3839 101.175 54.2218 101.717 53.9544C102.234 53.6988 102.642 53.3591 102.964 53.0958L101.696 51.549C101.351 51.8316 101.112 52.0226 100.831 52.1613C100.574 52.2881 100.252 52.3839 99.7668 52.3839V54.3839ZM102.964 53.0957C103.625 52.5537 104.18 52.1062 105.325 52.1062V50.1062C103.447 50.1062 102.425 50.9507 101.696 51.5491L102.964 53.0957ZM105.325 52.1062C106.47 52.1062 107.025 52.5537 107.686 53.0957L108.954 51.5491C108.225 50.9507 107.203 50.1062 105.325 50.1062V52.1062ZM107.686 53.0958C108.008 53.3591 108.416 53.6988 108.933 53.9544C109.475 54.2218 110.101 54.3839 110.883 54.3839V52.3839C110.398 52.3839 110.076 52.2881 109.819 52.1613C109.538 52.0226 109.299 51.8316 108.954 51.549L107.686 53.0958ZM109.883 53.3839V54.0672H111.883V53.3839H109.883ZM110.883 55.0672H110.883V53.0672H110.883V55.0672Z" fill="black" mask="url(#path-30-inside-1)"/>
<mask id="path-32-inside-2" fill="white">
<path d="M110.883 58.0605C109.372 58.0605 108.583 57.4144 107.888 56.8442C107.222 56.2983 106.593 55.7827 105.325 55.7827C104.058 55.7827 103.428 56.2983 102.762 56.8442C102.067 57.4144 101.278 58.0605 99.7668 58.0605C98.2554 58.0605 97.467 57.4144 96.7715 56.8442C96.1055 56.2983 95.4765 55.7827 94.2091 55.7827C92.9417 55.7827 92.3126 56.2983 91.6465 56.8442C90.9511 57.4142 90.1627 58.0605 88.6513 58.0605C87.1398 58.0605 86.3517 57.4144 85.656 56.8442C84.9897 56.2983 84.3608 55.7827 83.0934 55.7827V55.0994C84.6048 55.0994 85.393 55.7454 86.0887 56.3156C86.7547 56.8615 87.3837 57.3771 88.6511 57.3771C89.9185 57.3771 90.5476 56.8615 91.2136 56.3156C91.9091 55.7454 92.6975 55.0994 94.2089 55.0994C95.7204 55.0994 96.5087 55.7454 97.2042 56.3156C97.8703 56.8615 98.4992 57.3771 99.7668 57.3771C101.034 57.3771 101.664 56.8615 102.33 56.3156C103.025 55.7454 103.814 55.0994 105.325 55.0994C106.837 55.0994 107.625 55.7454 108.321 56.3156C108.987 56.8615 109.616 57.3771 110.883 57.3771V58.0605Z"/>
</mask>
<path d="M110.883 58.0605C109.372 58.0605 108.583 57.4144 107.888 56.8442C107.222 56.2983 106.593 55.7827 105.325 55.7827C104.058 55.7827 103.428 56.2983 102.762 56.8442C102.067 57.4144 101.278 58.0605 99.7668 58.0605C98.2554 58.0605 97.467 57.4144 96.7715 56.8442C96.1055 56.2983 95.4765 55.7827 94.2091 55.7827C92.9417 55.7827 92.3126 56.2983 91.6465 56.8442C90.9511 57.4142 90.1627 58.0605 88.6513 58.0605C87.1398 58.0605 86.3517 57.4144 85.656 56.8442C84.9897 56.2983 84.3608 55.7827 83.0934 55.7827V55.0994C84.6048 55.0994 85.393 55.7454 86.0887 56.3156C86.7547 56.8615 87.3837 57.3771 88.6511 57.3771C89.9185 57.3771 90.5476 56.8615 91.2136 56.3156C91.9091 55.7454 92.6975 55.0994 94.2089 55.0994C95.7204 55.0994 96.5087 55.7454 97.2042 56.3156C97.8703 56.8615 98.4992 57.3771 99.7668 57.3771C101.034 57.3771 101.664 56.8615 102.33 56.3156C103.025 55.7454 103.814 55.0994 105.325 55.0994C106.837 55.0994 107.625 55.7454 108.321 56.3156C108.987 56.8615 109.616 57.3771 110.883 57.3771V58.0605Z" fill="black"/>
<path d="M110.883 58.0605V59.0605H111.883V58.0605H110.883ZM107.888 56.8442L108.522 56.0709L108.522 56.0708L107.888 56.8442ZM102.762 56.8442L102.128 56.0708L102.128 56.0709L102.762 56.8442ZM96.7715 56.8442L97.4055 56.0709L97.4054 56.0708L96.7715 56.8442ZM91.6465 56.8442L92.2804 57.6177L92.2804 57.6176L91.6465 56.8442ZM85.656 56.8442L86.2899 56.0708L86.2898 56.0707L85.656 56.8442ZM83.0934 55.7827H82.0934V56.7827H83.0934V55.7827ZM83.0934 55.0994V54.0994H82.0934V55.0994H83.0934ZM86.0887 56.3156L85.4548 57.0891L85.4548 57.0891L86.0887 56.3156ZM91.2136 56.3156L91.8475 57.0891L91.8477 57.089L91.2136 56.3156ZM97.2042 56.3156L96.5702 57.089L96.5703 57.0891L97.2042 56.3156ZM102.33 56.3156L102.964 57.0891L102.964 57.0891L102.33 56.3156ZM108.321 56.3156L107.687 57.089L107.687 57.0891L108.321 56.3156ZM110.883 57.3771H111.883V56.3771H110.883V57.3771ZM110.883 57.0605C109.738 57.0605 109.183 56.6129 108.522 56.0709L107.254 57.6175C107.984 58.2159 109.005 59.0605 110.883 59.0605V57.0605ZM108.522 56.0708C108.201 55.8075 107.792 55.4678 107.275 55.2122C106.734 54.9448 106.107 54.7827 105.325 54.7827V56.7827C105.81 56.7827 106.132 56.8785 106.389 57.0053C106.67 57.144 106.909 57.335 107.254 57.6176L108.522 56.0708ZM105.325 54.7827C104.543 54.7827 103.916 54.9448 103.375 55.2122C102.858 55.4678 102.45 55.8075 102.128 56.0708L103.396 57.6176C103.741 57.335 103.98 57.144 104.261 57.0053C104.518 56.8785 104.84 56.7827 105.325 56.7827V54.7827ZM102.128 56.0709C101.467 56.6129 100.912 57.0605 99.7668 57.0605V59.0605C101.645 59.0605 102.666 58.2159 103.396 57.6175L102.128 56.0709ZM99.7668 57.0605C98.6219 57.0605 98.0667 56.613 97.4055 56.0709L96.1375 57.6175C96.8673 58.2159 97.8888 59.0605 99.7668 59.0605V57.0605ZM97.4054 56.0708C97.0843 55.8076 96.676 55.4678 96.1589 55.2123C95.6176 54.9448 94.9914 54.7827 94.2091 54.7827V56.7827C94.6943 56.7827 95.0162 56.8785 95.2728 57.0053C95.5535 57.144 95.7928 57.335 96.1376 57.6176L97.4054 56.0708ZM94.2091 54.7827C93.4269 54.7827 92.8006 54.9448 92.2594 55.2122C91.7421 55.4678 91.3339 55.8075 91.0126 56.0708L92.2804 57.6176C92.6253 57.335 92.8646 57.144 93.1453 57.0053C93.402 56.8785 93.724 56.7827 94.2091 56.7827V54.7827ZM91.0127 56.0708C90.3513 56.6128 89.7961 57.0605 88.6513 57.0605V59.0605C90.5293 59.0605 91.5509 58.2156 92.2804 57.6177L91.0127 56.0708ZM88.6513 57.0605C87.5064 57.0605 86.9514 56.613 86.2899 56.0708L85.0221 57.6176C85.7519 58.2158 86.7732 59.0605 88.6513 59.0605V57.0605ZM86.2898 56.0707C85.9685 55.8075 85.5603 55.4678 85.0431 55.2123C84.5019 54.9448 83.8756 54.7827 83.0934 54.7827V56.7827C83.5786 56.7827 83.9005 56.8785 84.1571 57.0053C84.4379 57.144 84.6772 57.335 85.0222 57.6177L86.2898 56.0707ZM84.0934 55.7827V55.0994H82.0934V55.7827H84.0934ZM83.0934 56.0994C84.2382 56.0994 84.7932 56.5469 85.4548 57.0891L86.7226 55.5422C85.9927 54.944 84.9714 54.0994 83.0934 54.0994V56.0994ZM85.4548 57.0891C85.7759 57.3523 86.1842 57.692 86.7013 57.9476C87.2425 58.2151 87.8688 58.3771 88.6511 58.3771V56.3771C88.1659 56.3771 87.844 56.2814 87.5874 56.1546C87.3067 56.0159 87.0674 55.8249 86.7226 55.5422L85.4548 57.0891ZM88.6511 58.3771C89.4333 58.3771 90.0596 58.2151 90.6008 57.9476C91.1181 57.6921 91.5263 57.3523 91.8475 57.0891L90.5798 55.5422C90.2349 55.8248 89.9956 56.0159 89.7149 56.1546C89.4582 56.2814 89.1362 56.3771 88.6511 56.3771V58.3771ZM91.8477 57.089C92.5088 56.5469 93.0641 56.0994 94.2089 56.0994V54.0994C92.3309 54.0994 91.3094 54.944 90.5796 55.5423L91.8477 57.089ZM94.2089 56.0994C95.3538 56.0994 95.909 56.5469 96.5702 57.089L97.8382 55.5423C97.1084 54.944 96.0869 54.0994 94.2089 54.0994V56.0994ZM96.5703 57.0891C96.8915 57.3523 97.2997 57.692 97.8169 57.9476C98.3582 58.2151 98.9845 58.3771 99.7668 58.3771V56.3771C99.2815 56.3771 98.9596 56.2814 98.7029 56.1546C98.4222 56.0159 98.183 55.8249 97.8381 55.5422L96.5703 57.0891ZM99.7668 58.3771C100.549 58.3771 101.175 58.2151 101.717 57.9476C102.234 57.6921 102.642 57.3523 102.964 57.0891L101.696 55.5422C101.351 55.8248 101.112 56.0158 100.831 56.1546C100.574 56.2814 100.252 56.3771 99.7668 56.3771V58.3771ZM102.964 57.0891C103.625 56.5469 104.18 56.0994 105.325 56.0994V54.0994C103.447 54.0994 102.426 54.944 101.696 55.5422L102.964 57.0891ZM105.325 56.0994C106.47 56.0994 107.025 56.5469 107.687 57.089L108.955 55.5423C108.225 54.944 107.203 54.0994 105.325 54.0994V56.0994ZM107.687 57.0891C108.008 57.3523 108.416 57.6921 108.933 57.9476C109.475 58.2151 110.101 58.3771 110.883 58.3771V56.3771C110.398 56.3771 110.076 56.2814 109.819 56.1546C109.539 56.0158 109.299 55.8248 108.954 55.5422L107.687 57.0891ZM109.883 57.3771V58.0605H111.883V57.3771H109.883Z" fill="black" mask="url(#path-32-inside-2)"/>
<mask id="path-34-inside-3" fill="white">
<path d="M110.883 62.0537C109.372 62.0537 108.583 61.4077 107.888 60.8375C107.222 60.2916 106.593 59.776 105.325 59.776C104.058 59.776 103.428 60.2916 102.762 60.8375C102.067 61.4077 101.278 62.0537 99.7668 62.0537C98.2554 62.0537 97.467 61.4077 96.7715 60.8375C96.1055 60.2916 95.4765 59.776 94.2091 59.776C92.9417 59.776 92.3126 60.2916 91.6465 60.8375C90.9511 61.4075 90.1627 62.0537 88.6513 62.0537C87.1398 62.0537 86.3517 61.4077 85.656 60.8375C84.9897 60.2916 84.3608 59.7758 83.0934 59.7758V59.0925C84.6048 59.0925 85.393 59.7385 86.0887 60.3087C86.7547 60.8546 87.3837 61.3702 88.6511 61.3702C89.9185 61.3702 90.5476 60.8546 91.2136 60.3087C91.9091 59.7385 92.6975 59.0925 94.2089 59.0925C95.7204 59.0925 96.5087 59.7385 97.2042 60.3087C97.8703 60.8546 98.4992 61.3702 99.7668 61.3702C101.034 61.3702 101.664 60.8546 102.33 60.3087C103.025 59.7385 103.814 59.0925 105.325 59.0925C106.837 59.0925 107.625 59.7385 108.321 60.3087C108.987 60.8546 109.616 61.3702 110.883 61.3702V62.0537Z"/>
</mask>
<path d="M110.883 62.0537C109.372 62.0537 108.583 61.4077 107.888 60.8375C107.222 60.2916 106.593 59.776 105.325 59.776C104.058 59.776 103.428 60.2916 102.762 60.8375C102.067 61.4077 101.278 62.0537 99.7668 62.0537C98.2554 62.0537 97.467 61.4077 96.7715 60.8375C96.1055 60.2916 95.4765 59.776 94.2091 59.776C92.9417 59.776 92.3126 60.2916 91.6465 60.8375C90.9511 61.4075 90.1627 62.0537 88.6513 62.0537C87.1398 62.0537 86.3517 61.4077 85.656 60.8375C84.9897 60.2916 84.3608 59.7758 83.0934 59.7758V59.0925C84.6048 59.0925 85.393 59.7385 86.0887 60.3087C86.7547 60.8546 87.3837 61.3702 88.6511 61.3702C89.9185 61.3702 90.5476 60.8546 91.2136 60.3087C91.9091 59.7385 92.6975 59.0925 94.2089 59.0925C95.7204 59.0925 96.5087 59.7385 97.2042 60.3087C97.8703 60.8546 98.4992 61.3702 99.7668 61.3702C101.034 61.3702 101.664 60.8546 102.33 60.3087C103.025 59.7385 103.814 59.0925 105.325 59.0925C106.837 59.0925 107.625 59.7385 108.321 60.3087C108.987 60.8546 109.616 61.3702 110.883 61.3702V62.0537Z" fill="black"/>
<path d="M110.883 62.0537V63.0537H111.883V62.0537H110.883ZM107.888 60.8375L108.522 60.0642L108.522 60.0641L107.888 60.8375ZM102.762 60.8375L102.128 60.0641L102.128 60.0642L102.762 60.8375ZM96.7715 60.8375L97.4055 60.0642L97.4054 60.0641L96.7715 60.8375ZM91.6465 60.8375L92.2804 61.6109L92.2804 61.6109L91.6465 60.8375ZM85.656 60.8375L86.2899 60.0641L86.2898 60.064L85.656 60.8375ZM83.0934 59.7758H82.0934V60.7758H83.0934V59.7758ZM83.0934 59.0925V58.0925H82.0934V59.0925H83.0934ZM86.0887 60.3087L85.4548 61.0821L85.4548 61.0821L86.0887 60.3087ZM91.2136 60.3087L91.8475 61.0821L91.8477 61.082L91.2136 60.3087ZM97.2042 60.3087L96.5702 61.082L96.5703 61.0821L97.2042 60.3087ZM102.33 60.3087L102.964 61.0821L102.964 61.0821L102.33 60.3087ZM108.321 60.3087L107.687 61.082L107.687 61.0821L108.321 60.3087ZM110.883 61.3702H111.883V60.3702H110.883V61.3702ZM110.883 61.0537C109.738 61.0537 109.183 60.6062 108.522 60.0642L107.254 61.6108C107.984 62.2092 109.005 63.0537 110.883 63.0537V61.0537ZM108.522 60.0641C108.201 59.8008 107.792 59.4611 107.275 59.2055C106.734 58.9381 106.107 58.776 105.325 58.776V60.776C105.81 60.776 106.132 60.8718 106.389 60.9986C106.67 61.1373 106.909 61.3283 107.254 61.6109L108.522 60.0641ZM105.325 58.776C104.543 58.776 103.916 58.9381 103.375 59.2055C102.858 59.4611 102.45 59.8008 102.128 60.0641L103.396 61.6109C103.741 61.3283 103.98 61.1373 104.261 60.9986C104.518 60.8718 104.84 60.776 105.325 60.776V58.776ZM102.128 60.0642C101.467 60.6062 100.912 61.0537 99.7668 61.0537V63.0537C101.645 63.0537 102.666 62.2092 103.396 61.6108L102.128 60.0642ZM99.7668 61.0537C98.6219 61.0537 98.0667 60.6062 97.4055 60.0642L96.1375 61.6108C96.8673 62.2092 97.8888 63.0537 99.7668 63.0537V61.0537ZM97.4054 60.0641C97.0843 59.8009 96.676 59.4611 96.1589 59.2055C95.6176 58.9381 94.9914 58.776 94.2091 58.776V60.776C94.6943 60.776 95.0162 60.8718 95.2728 60.9986C95.5535 61.1373 95.7928 61.3283 96.1376 61.6109L97.4054 60.0641ZM94.2091 58.776C93.4269 58.776 92.8006 58.9381 92.2594 59.2055C91.7421 59.4611 91.3339 59.8008 91.0126 60.0641L92.2804 61.6109C92.6253 61.3283 92.8646 61.1373 93.1453 60.9986C93.402 60.8718 93.724 60.776 94.2091 60.776V58.776ZM91.0127 60.0641C90.3513 60.6061 89.7961 61.0537 88.6513 61.0537V63.0537C90.5293 63.0537 91.5509 62.2089 92.2804 61.6109L91.0127 60.0641ZM88.6513 61.0537C87.5064 61.0537 86.9514 60.6063 86.2899 60.0641L85.0221 61.6109C85.7519 62.2091 86.7732 63.0537 88.6513 63.0537V61.0537ZM86.2898 60.064C85.9686 59.8009 85.5603 59.4611 85.0432 59.2055C84.502 58.938 83.8757 58.7758 83.0934 58.7758V60.7758C83.5785 60.7758 83.9004 60.8716 84.157 60.9984C84.4378 61.1372 84.6771 61.3283 85.0222 61.611L86.2898 60.064ZM84.0934 59.7758V59.0925H82.0934V59.7758H84.0934ZM83.0934 60.0925C84.2382 60.0925 84.7932 60.5399 85.4548 61.0821L86.7226 59.5353C85.9927 58.9371 84.9714 58.0925 83.0934 58.0925V60.0925ZM85.4548 61.0821C85.7759 61.3454 86.1842 61.6851 86.7013 61.9407C87.2425 62.2081 87.8688 62.3702 88.6511 62.3702V60.3702C88.1659 60.3702 87.844 60.2745 87.5874 60.1477C87.3067 60.009 87.0674 59.818 86.7226 59.5353L85.4548 61.0821ZM88.6511 62.3702C89.4333 62.3702 90.0596 62.2081 90.6008 61.9407C91.1181 61.6851 91.5263 61.3454 91.8475 61.0821L90.5798 59.5353C90.2349 59.8179 89.9956 60.0089 89.7149 60.1476C89.4582 60.2745 89.1362 60.3702 88.6511 60.3702V62.3702ZM91.8477 61.082C92.5088 60.54 93.0641 60.0925 94.2089 60.0925V58.0925C92.3309 58.0925 91.3094 58.9371 90.5796 59.5354L91.8477 61.082ZM94.2089 60.0925C95.3538 60.0925 95.909 60.54 96.5702 61.082L97.8382 59.5354C97.1084 58.9371 96.0869 58.0925 94.2089 58.0925V60.0925ZM96.5703 61.0821C96.8915 61.3454 97.2997 61.6851 97.8169 61.9407C98.3582 62.2081 98.9845 62.3702 99.7668 62.3702V60.3702C99.2815 60.3702 98.9596 60.2745 98.7029 60.1476C98.4222 60.0089 98.183 59.818 97.8381 59.5353L96.5703 61.0821ZM99.7668 62.3702C100.549 62.3702 101.175 62.2081 101.717 61.9407C102.234 61.6851 102.642 61.3454 102.964 61.0821L101.696 59.5353C101.351 59.8179 101.112 60.0089 100.831 60.1476C100.574 60.2745 100.252 60.3702 99.7668 60.3702V62.3702ZM102.964 61.0821C103.625 60.54 104.18 60.0925 105.325 60.0925V58.0925C103.447 58.0925 102.426 58.9371 101.696 59.5353L102.964 61.0821ZM105.325 60.0925C106.47 60.0925 107.025 60.54 107.687 61.082L108.955 59.5354C108.225 58.937 107.203 58.0925 105.325 58.0925V60.0925ZM107.687 61.0821C108.008 61.3454 108.416 61.6851 108.933 61.9407C109.475 62.2081 110.101 62.3702 110.883 62.3702V60.3702C110.398 60.3702 110.076 60.2745 109.819 60.1476C109.539 60.0089 109.299 59.8179 108.954 59.5353L107.687 61.0821ZM109.883 61.3702V62.0537H111.883V61.3702H109.883Z" fill="black" mask="url(#path-34-inside-3)"/>
</g>
<path d="M53.9548 35.804C52.8267 36.4406 51.6454 37.2801 50.3845 37.9916C48.3632 39.1321 48.5122 39.0654 46.6325 40.1259C46.4714 40.2167 46.2172 40.0084 46.0382 40.0084C45.8542 40.0084 45.7439 39.9534 45.5795 39.8573L45.5792 39.8571C45.2551 39.6677 44.8774 39.4471 44.8774 39.0719C44.8774 37.4278 44.8403 37.4278 44.8403 35.7834C44.8403 34.7464 45.3143 33.7091 45.9783 32.9123C47.2311 31.4078 47.1595 31.5403 48.5064 29.9223C49.3468 28.9126 50.1215 27.8603 50.8734 26.9567C50.6065 25.3657 50.5056 23.7568 50.5056 22.1436C50.5056 20.8696 50.8594 19.6301 51.0218 18.3881C51.1862 17.132 51.4147 15.9101 51.7434 14.6944C52.0722 13.4786 52.3892 12.2655 52.881 11.098C52.9002 11.0524 52.9196 11.007 52.9393 10.9618C53.4008 9.90054 53.9923 8.92395 54.5668 7.93807C55.1718 6.89909 55.8027 5.89852 56.5363 4.95394C57.2697 4.00968 57.8803 2.94531 58.7376 2.10131C59.1484 1.69672 59.995 1.71592 60.4058 2.12051C61.2628 2.96452 61.8536 4.03995 62.5869 4.98421C63.3206 5.92879 63.9924 6.89779 64.5978 7.93677C65.1964 8.96435 65.7289 10.0186 66.1983 11.1328C66.6901 12.3007 67.3391 13.4113 67.6679 14.627C67.9966 15.8427 67.9755 17.132 68.1399 18.3881C68.3023 19.6298 68.3976 20.8696 68.3976 22.1436C68.3976 23.7594 68.2736 25.3116 68.0058 26.9049C68.758 27.8072 69.7937 28.935 70.6344 29.9434C71.9817 31.5595 71.8638 31.4654 73.1167 32.9682C73.7807 33.7647 74.0378 34.7467 74.0378 35.7838C74.0378 37.4282 74.0749 37.4282 74.0749 39.0722C74.0749 39.4479 74.0541 39.9215 73.7302 40.1109C73.5658 40.2066 73.3077 40.2476 73.1238 40.2476C72.9448 40.2476 72.8416 39.9488 72.6805 39.858C70.8008 38.7975 70.9352 38.8903 68.9139 37.7498C67.6529 37.0382 66.0915 36.3189 64.9634 35.6822C64.676 36.2072 64.3827 36.7153 64.0617 37.2205C64.5344 39.1113 64.605 39.193 65.0776 41.0835C65.1567 41.3989 65.0161 41.6355 64.8159 41.8917C64.6157 42.1482 64.4204 42.2803 64.0953 42.2803C61.8383 42.2803 61.8383 42.5316 59.581 42.5316C57.324 42.5316 57.324 42.5046 55.0667 42.5046C54.7415 42.5046 54.556 42.1407 54.3558 41.8842C54.1557 41.628 54.098 41.4223 54.1771 41.1069C54.6497 39.2164 54.6322 39.1084 55.1048 37.2176C54.7839 36.7124 54.2422 36.329 53.9548 35.804Z" fill="#E2E7F0"/>
<path d="M68.9516 38.0409C67.6907 37.3294 66.1293 36.6101 65.0011 35.9734L68.0435 27.1961C68.7957 28.0984 69.8314 29.2262 70.6722 30.2346C72.0194 31.8507 71.9016 31.7566 73.1544 33.2594C73.8184 34.0559 74.0756 35.0379 74.0756 36.075C74.0756 37.7193 74.1127 37.7193 74.1127 39.3634C74.1127 39.739 74.0918 40.2126 73.768 40.4021C73.6036 40.4978 73.3455 40.5388 73.1616 40.5388C72.9825 40.5388 72.8794 40.24 72.7182 40.1492C70.8385 39.0887 70.9729 39.1815 68.9516 38.0409Z" fill="#8BB3FD"/>
<path d="M50.3646 38.231C51.6255 37.5195 52.8068 36.68 53.9349 36.0434C53.6198 35.3471 52.9376 33.5009 52.2987 31.6528C51.6597 29.8053 51.0361 27.9379 50.8535 27.1961C50.1016 28.0997 49.3269 29.152 48.4865 30.1617C47.1396 31.7797 47.2112 31.6473 45.9584 33.1517C45.2944 33.9485 44.8204 34.9858 44.8204 36.0229C44.8204 37.6673 44.8575 37.6673 44.8575 39.3113C44.8575 39.6865 45.2352 39.9072 45.5593 40.0966L45.5596 40.0968C45.724 40.1928 45.8343 40.2478 46.0183 40.2478C46.1973 40.2478 46.4515 40.4561 46.6126 40.3653C48.4923 39.3048 48.3433 39.3716 50.3646 38.231Z" fill="#8BB3FD"/>
<path d="M63.6786 21.0448C63.6786 19.8802 63.2213 18.9324 62.4567 18.1678C61.6918 17.4029 60.7439 16.7027 59.5793 16.7027C58.415 16.7027 57.4701 17.4064 56.7052 18.171C55.9403 18.9359 55.2952 19.8805 55.2952 21.0448C55.2952 22.2091 55.8951 23.1993 56.66 23.9639C57.4249 24.7288 58.4147 25.3863 59.579 25.3863C60.7436 25.3863 61.8057 24.801 62.5703 24.0361C63.3355 23.2715 63.6786 22.2091 63.6786 21.0448Z" fill="#89E2F2"/>
<path d="M92.3009 90.2649L28.5047 90.1839C28.5047 88.0223 28.3919 83.6988 28.3919 81.5369C28.3919 79.3764 28.5203 79.3764 28.5203 77.2162C28.5203 75.055 28.3555 75.055 28.3555 72.8942C28.3555 70.734 28.4114 70.734 28.4114 68.5738C28.4114 66.414 28.52 66.414 28.52 64.2545C28.52 62.0944 28.4283 62.0944 28.4283 59.9338C28.4283 57.7733 28.5122 57.7733 28.5122 55.6132C28.5122 53.4534 28.6071 53.4533 28.6071 51.2932C28.6071 49.1327 28.4394 49.1327 28.4394 46.9721C28.4394 45.5962 29.028 44.3708 29.872 43.467C30.7161 42.5627 31.8604 42.1195 33.1458 42.1195C34.9233 42.1195 34.9233 42.0722 36.7007 42.0722C38.4782 42.0722 38.4782 42.0698 40.2556 42.0698C42.0318 42.0698 42.0318 41.987 43.808 41.987C45.5848 41.987 45.5848 41.8982 47.3616 41.8982L73.4242 42.0026C75.2013 42.0026 75.2016 42.0541 76.9788 42.0541C78.7559 42.0541 78.7559 41.8819 80.5334 41.8819C82.3095 41.8819 82.3095 42.0193 84.0857 42.0193C85.8622 42.0193 85.8622 41.8429 87.639 41.8429C88.9247 41.8429 90.1412 42.4855 90.9856 43.3897C91.8296 44.2939 92.2651 45.5965 92.2651 46.9728C92.2651 49.1348 92.3568 49.1348 92.3568 51.2963C92.3568 53.4579 92.2729 53.4579 92.2729 55.6198C92.2729 57.7799 92.178 57.7799 92.178 59.9401C92.178 62.101 92.3457 62.101 92.3457 64.2618C92.3457 66.422 92.271 66.422 92.271 68.5822C92.271 70.742 92.1705 70.742 92.1705 72.9015C92.1705 75.062 92.2147 75.062 92.2147 77.2221C92.2147 79.3827 92.217 79.3827 92.217 81.5428C92.217 83.7027 92.3009 88.1047 92.3009 90.2649Z" fill="white"/>
<path d="M97.057 87.793C94.6499 87.793 94.6499 87.8758 92.2428 87.8758L28.4526 87.8002C26.0455 87.8002 26.0244 87.8096 23.6173 87.8096C23.0054 87.8096 22.4893 88.2957 22.4893 88.9074C22.4893 90.0912 22.4607 90.0912 22.4607 91.2751C22.4607 93.1914 24.069 94.8366 25.9864 94.8366C27.8959 94.8366 27.8962 94.8824 29.8058 94.8824C31.7154 94.8824 31.7154 94.8357 33.6252 94.8357C35.5335 94.8357 35.5335 94.6632 37.4421 94.6632C39.3513 94.6632 39.3513 94.6866 41.2602 94.6866C43.1688 94.6866 43.1688 94.8964 45.0771 94.8964C46.985 94.8964 46.985 94.7717 48.893 94.7717C50.8015 94.7717 50.8015 94.8198 52.7101 94.8198C54.6184 94.8198 54.6184 94.659 56.527 94.659C58.4352 94.659 58.4352 94.7873 60.3435 94.7873C62.2521 94.7873 62.2521 94.6227 64.1607 94.6227C66.0689 94.6227 66.0689 94.6785 67.9772 94.6785C69.8854 94.6785 69.8854 94.787 71.7934 94.787C73.7016 94.787 73.7016 94.6954 75.6096 94.6954C77.5178 94.6954 77.5178 94.7792 79.4261 94.7792C81.3344 94.7792 81.3344 94.874 83.2423 94.874C85.1496 94.874 85.1496 94.7064 87.0572 94.7064C88.9651 94.7064 88.9651 94.7811 90.8731 94.7811C92.7807 94.7811 92.7807 94.8814 94.688 94.8814C96.6056 94.8814 98.2516 93.1917 98.2516 91.2754C98.2516 90.0916 98.2494 90.0916 98.2494 88.9077C98.2494 88.296 97.669 87.793 97.057 87.793Z" fill="#EDF1F7"/>
<path d="M79.4741 87.6955C81.4699 87.6955 81.4699 87.6932 83.466 87.6932H85.6198L84.7851 83.8885C84.3218 82.7001 83.5954 81.628 82.7708 80.6552C81.925 79.6573 80.9377 78.8382 79.8131 78.2429C78.6648 77.6353 77.4394 77.3373 76.1092 77.3373C75.4117 77.3373 74.6967 77.311 74.01 77.4647C73.4098 76.3375 72.5529 75.3501 71.4732 74.706C70.4001 74.0657 69.1245 73.8625 67.8097 73.8625C66.9492 73.8625 65.6106 74.0964 64.623 73.3518C63.6737 72.6357 63.8927 71.6575 63.4711 70.5627C63.0631 69.5033 62.6789 68.3625 62.4714 67.1389C62.2772 65.9936 62.2684 64.7887 62.2108 63.5826C62.1539 62.3907 62.2105 61.1963 62.2505 60.0232C62.2925 58.7901 62.2134 57.5811 62.3217 56.4568C62.4476 55.1479 62.7316 53.9592 62.8852 52.9296C63.2033 50.7989 62.9642 51.1333 63.351 49.3914C63.7378 47.6496 61.1504 47.7595 59.514 47.7421L59.4837 47.7418C57.789 47.7238 55.0974 47.6951 55.5329 49.4212C55.9711 51.1577 56.0394 50.7713 56.4035 52.8976C56.5801 53.9291 56.6335 55.1543 56.7792 56.464C56.9048 57.5925 57.1699 58.7888 57.2203 60.0238C57.2685 61.203 57.2151 62.418 57.1513 63.6115C57.0866 64.8233 56.8452 66.0117 56.6211 67.1544C56.3813 68.3751 56.125 69.561 55.6514 70.6032C55.0717 71.8791 55.168 73.1109 53.8781 73.717C52.9351 74.1601 52.0701 73.6219 51.2096 73.6219C49.8948 73.6219 48.6657 74.1395 47.5926 74.7798C46.5129 75.4236 45.5721 76.2903 44.9719 77.4175C44.2852 77.2634 43.6072 77.0821 42.9098 77.0821C41.5793 77.0821 40.2716 77.4869 39.1232 78.0946C37.9987 78.6899 36.9642 79.5527 36.1184 80.5506C35.2937 81.5237 34.6844 82.6956 34.2215 83.884L33.4083 87.4859L35.5618 87.5218C37.5579 87.5218 37.5579 87.647 39.5539 87.647C41.5507 87.647 41.5507 87.4859 43.5474 87.4859C45.5435 87.4859 45.5435 87.5405 47.5395 87.5405C49.5353 87.5405 49.5353 87.6463 51.5307 87.6463C53.5271 87.6463 53.5271 87.5569 55.5232 87.5569C57.5193 87.5569 57.5193 87.6387 59.5153 87.6387C61.5114 87.6387 61.5114 87.7313 63.5072 87.7313C65.5032 87.7313 65.5032 87.5677 67.4996 87.5677C69.4954 87.5677 69.4954 87.6406 71.4915 87.6406C73.4872 87.6406 73.4872 87.7386 75.483 87.7386C77.4784 87.7386 77.4784 87.6955 79.4741 87.6955Z" fill="#FFB92E"/>
<path d="M54.0744 41.2352C54.5466 39.3112 54.5291 39.2012 55.0013 37.2769C57.296 37.2769 57.1786 37.2113 59.4733 37.2113C61.7425 37.2113 61.658 37.2784 63.875 37.2799C63.8999 37.2799 63.925 37.2799 63.9505 37.2799C64.4227 39.2042 64.4933 39.2873 64.9655 41.2113C65.0445 41.5323 64.904 41.7731 64.704 42.0338C64.504 42.2949 64.3089 42.4294 63.984 42.4294C61.729 42.4294 61.729 42.6851 59.4736 42.6851C57.2186 42.6851 57.2186 42.6576 54.9632 42.6576C54.6384 42.6576 54.453 42.2873 54.253 42.0262C54.053 41.7655 53.9954 41.5562 54.0744 41.2352Z" fill="#8BB3FD"/>
<path d="M64.6367 7.29636C65.2405 8.35193 65.7776 9.43491 66.251 10.5794C63.9859 10.5794 64.1097 10.669 61.8442 10.669C59.5774 10.669 59.5774 10.6844 57.3107 10.6844C55.0776 10.6844 55.0444 10.4118 52.8766 10.4037C53.3422 9.31361 53.9388 8.31042 54.5182 7.2977C55.1286 6.23043 55.7649 5.20262 56.5049 4.23232C57.2447 3.26235 57.8606 2.169 58.7254 1.30202C59.1398 0.886411 59.9938 0.906138 60.4081 1.32174C61.2726 2.18873 61.8685 3.29344 62.6082 4.26341C63.3483 5.23372 64.026 6.2291 64.6367 7.29636Z" fill="#8BB3FD"/>
<path d="M92.3312 87.8261C92.3312 85.8048 92.2482 85.8048 92.2482 83.7838C92.2482 81.7628 92.1708 81.7628 92.1708 79.7421C92.1708 77.7211 92.1685 77.7211 92.1685 75.6998C92.1685 73.6788 92.1242 73.6788 92.1242 71.6575C92.1242 69.6372 92.2248 69.6372 92.2248 67.6165C92.2248 65.5955 92.2997 65.5955 92.2997 63.5745C92.2997 61.5529 92.1317 61.5529 92.1317 59.5312C92.1317 57.5102 92.2268 57.5102 92.2268 55.4892C92.2268 53.4666 92.3107 53.4666 92.3107 51.4443C92.3107 49.422 92.219 49.422 92.219 47.3994C92.219 46.1117 91.7828 44.8931 90.9375 44.0471C90.0919 43.2012 88.8735 42.6 87.5859 42.6C85.8064 42.6 85.8064 42.765 84.0272 42.765C82.2484 42.765 82.2484 42.6364 80.4696 42.6364C78.6895 42.6364 78.6895 42.7976 76.9097 42.7976C75.1299 42.7976 75.1295 42.7494 73.3497 42.7494M47.248 42.6517C45.4685 42.6517 45.4685 42.7347 43.6891 42.7347C41.9102 42.7347 41.9102 42.8122 40.1314 42.8122C38.3513 42.8122 38.3513 42.8145 36.5712 42.8145C34.791 42.8145 34.791 42.8588 33.0109 42.8588C31.7236 42.8588 30.5775 43.2734 29.7322 44.1194C28.8869 44.965 28.2974 46.1114 28.2974 47.3988C28.2974 49.4201 28.4654 49.4201 28.4654 51.4414C28.4654 53.4624 28.3703 53.4624 28.3703 55.4831C28.3703 57.504 28.2864 57.504 28.2864 59.5254C28.2864 61.5467 28.3781 61.5467 28.3781 63.5677C28.3781 65.588 28.2694 65.588 28.2694 67.6087C28.2694 69.6297 28.2134 69.6297 28.2134 71.6507C28.2134 73.6723 28.3785 73.6723 28.3785 75.6943C28.3785 77.7153 28.2499 77.7153 28.2499 79.7366C28.2499 81.7592 28.411 81.7592 28.411 83.7815C28.411 85.8041 28.3629 85.8041 28.3629 87.8264M92.2548 87.9023C94.6657 87.9023 94.6657 87.8193 97.0766 87.8193C97.6895 87.8193 98.2709 88.3235 98.2709 88.9367C98.2709 90.1234 98.2731 90.1234 98.2731 91.3102C98.2731 93.2313 96.6245 94.9251 94.7038 94.9251C92.7934 94.9251 92.7935 94.8246 90.8828 94.8246C88.9718 94.8246 88.9718 94.7497 87.0608 94.7497C85.1502 94.7497 85.1502 94.9177 83.2399 94.9177C81.3289 94.9177 81.3289 94.8226 79.4176 94.8226C77.5063 94.8226 77.5063 94.7386 75.595 94.7386C73.684 94.7386 73.684 94.8304 71.7727 94.8304C69.8617 94.8304 69.8617 94.7217 67.9504 94.7217C66.0391 94.7217 66.0391 94.6657 64.1278 94.6657C62.2162 94.6657 62.2162 94.8307 60.3046 94.8307C58.3933 94.8307 58.3933 94.7022 56.482 94.7022C54.5703 94.7022 54.5703 94.8633 52.659 94.8633C50.7474 94.8633 50.7474 94.8151 48.8358 94.8151C46.9248 94.8151 46.9248 94.9401 45.0138 94.9401C43.1025 94.9401 43.1025 94.7298 41.1909 94.7298C39.2789 94.7298 39.2789 94.7064 37.3667 94.7064C35.455 94.7064 35.455 94.8792 33.5437 94.8792C31.6308 94.8792 31.6308 94.9261 29.7182 94.9261C27.8056 94.9261 27.8053 94.8802 25.8927 94.8802C23.9723 94.8802 22.3614 93.2309 22.3614 91.3099C22.3614 90.1231 22.39 90.1231 22.39 88.9364C22.39 88.3231 22.9069 87.8359 23.5198 87.8359C25.9308 87.8359 25.9308 87.83 28.3417 87.83L92.2548 87.9023ZM92.2548 87.7496C90.2585 87.7496 90.2585 87.8326 88.2622 87.8326C86.2653 87.8326 86.2653 87.9101 84.2688 87.9101C82.2715 87.9101 82.2715 87.9124 80.2746 87.9124C78.2777 87.9124 78.2777 87.9566 76.2811 87.9566C74.2842 87.9566 74.2842 87.8561 72.2873 87.8561C70.2901 87.8561 70.2901 87.7812 68.2932 87.7812C66.2956 87.7812 66.2956 87.9491 64.2984 87.9491C62.3015 87.9491 62.3015 87.8541 60.3042 87.8541C58.307 87.8541 58.307 87.7701 56.3098 87.7701C54.3125 87.7701 54.3125 87.8619 52.315 87.8619C50.3184 87.8619 50.3184 87.7532 48.3215 87.7532C46.3243 87.7532 46.3243 87.6972 44.327 87.6972C42.3292 87.6972 42.3292 87.8626 40.3313 87.8626C38.334 87.8626 38.334 87.734 36.3368 87.734C34.3383 87.734 34.3383 87.8954 32.3394 87.8954C30.3406 87.8954 30.3409 87.8473 28.342 87.8473L92.2548 87.7496Z" stroke="black" stroke-width="2"/>
<path d="M54.1838 35.4788C53.0557 36.1155 51.8744 36.9549 50.6135 37.6664C48.5922 38.807 48.7412 38.7402 46.8615 39.8007C46.7004 39.8915 46.4462 39.6832 46.2672 39.6832C46.0833 39.6832 45.9729 39.6282 45.8085 39.5322C45.4843 39.3427 45.1064 39.122 45.1064 38.7468C45.1064 37.1027 45.0693 37.1027 45.0693 35.4583C45.0693 34.4213 45.5433 33.3839 46.2073 32.5871C47.4601 31.0827 47.3885 31.2151 48.7354 29.5971C49.5758 28.5874 50.3505 27.5351 51.1024 26.6315M54.1838 35.4788C54.4712 36.0038 55.0129 36.3872 55.3338 36.8924M54.1838 35.4788C53.8687 34.7826 53.1865 32.9364 52.5476 31.0882C51.9086 29.2407 51.285 27.3733 51.1024 26.6315M51.1024 26.6315C50.8355 25.0405 50.7346 23.4316 50.7346 21.8184C50.7346 20.5445 51.0884 19.305 51.2508 18.0629C51.4152 16.8068 51.6437 15.5849 51.9724 14.3692C52.3012 13.1535 52.6182 11.9403 53.11 10.7728C53.5794 9.65864 54.1968 8.64081 54.7958 7.6129C55.4008 6.57393 56.0317 5.57336 56.7653 4.62877C57.4987 3.68452 58.1093 2.62015 58.9666 1.77614C59.3774 1.37155 60.224 1.39076 60.6348 1.79535C61.4918 2.63935 62.0826 3.71479 62.8159 4.65904C63.5496 5.60363 64.2214 6.57262 64.8268 7.6116C65.4254 8.63919 65.9579 9.69346 66.4273 10.8076M55.3458 36.9992C54.8732 38.89 54.8788 38.8913 54.4061 40.7817C54.327 41.0971 54.3847 41.3029 54.5848 41.559C54.785 41.8155 54.9705 42.1794 55.2957 42.1794C57.553 42.1794 57.553 42.2064 59.81 42.2064C62.0673 42.2064 62.0673 41.9551 64.3243 41.9551C64.6494 41.9551 64.8447 41.823 65.0449 41.5665C65.2451 41.3103 65.3857 41.0737 65.3066 40.7583C64.834 38.8678 64.8633 38.8603 64.3907 36.9696M65.1924 35.3571C64.905 35.8821 64.6117 36.3902 64.2907 36.8953L65.1924 35.3571ZM65.1924 35.3571C66.3205 35.9937 67.8819 36.7131 69.1429 37.4246C71.1642 38.5651 71.0298 38.4724 72.9095 39.5328C73.0706 39.6236 73.1738 39.9224 73.3528 39.9224C73.5367 39.9224 73.7948 39.8814 73.9592 39.7857C74.2831 39.5963 74.3039 39.1227 74.3039 38.7471C74.3039 37.103 74.2668 37.103 74.2668 35.4586C74.2668 34.4216 74.0097 33.4396 73.3457 32.6431C72.0928 31.1403 72.2107 31.2343 70.8634 29.6183C70.0227 28.6099 68.987 27.482 68.2348 26.5798M65.1924 35.3571L68.2348 26.5798M68.2348 26.5798C68.5026 24.9865 68.6267 23.4342 68.6267 21.8184C68.6267 20.5445 68.5313 19.3047 68.3689 18.0629C68.2045 16.8068 68.2256 15.5175 67.8969 14.3018C67.5681 13.0861 66.9191 11.9755 66.4273 10.8076M66.4273 10.8076C64.1817 10.8076 64.3044 10.8949 62.0585 10.8949C59.8113 10.8949 59.8113 10.9098 57.5641 10.9098C55.3169 10.9098 55.3169 10.6364 53.0697 10.6364M55.2163 36.8335C57.513 36.8335 57.513 36.828 59.8097 36.828C62.1064 36.828 62.1064 36.813 64.403 36.813L55.2163 36.8335Z" stroke="black" stroke-width="2"/>
<path d="M64.3297 21.1408C64.3297 19.9761 63.8724 19.0283 63.1078 18.2637C62.3429 17.4988 61.3951 16.7987 60.2304 16.7987C59.0662 16.7987 58.1212 17.5024 57.3563 18.267C56.5914 19.0319 55.9463 19.9765 55.9463 21.1408C55.9463 22.305 56.5462 23.2952 57.3111 24.0598C58.076 24.8247 59.0658 25.4822 60.2301 25.4822C61.3947 25.4822 62.4568 24.897 63.2214 24.132C63.9866 23.3675 64.3297 22.305 64.3297 21.1408Z" stroke="black" stroke-width="2"/>
<path d="M21.0825 30.6323C19.3665 30.6323 19.3665 30.6287 17.6504 30.6287C15.9343 30.6287 15.9343 30.7098 14.2181 30.7098C12.502 30.7098 12.502 30.7656 10.7858 30.7656" stroke="black" stroke-width="1.5" stroke-miterlimit="10" stroke-linecap="round" stroke-linejoin="round"/>
<path d="M15.8886 25.5365C15.8886 27.2526 15.9776 27.2526 15.9776 28.9686C15.9776 30.6848 15.8565 30.6848 15.8565 32.4009C15.8565 34.1171 15.9125 34.1171 15.9125 35.8332" stroke="black" stroke-width="1.5" stroke-miterlimit="10" stroke-linecap="round" stroke-linejoin="round"/>
<path d="M19.6383 27.108C18.425 28.3214 18.3868 28.2833 17.1735 29.4966C15.9599 30.7102 15.9694 30.7197 14.7559 31.9332C13.5424 33.1468 13.4635 33.0678 12.2499 34.2814" stroke="black" stroke-width="1.5" stroke-miterlimit="10" stroke-linecap="round" stroke-linejoin="round"/>
<path d="M12.2906 27.0477C13.5039 28.2611 13.5067 28.2584 14.7201 29.4717C15.9336 30.6853 15.8936 30.7252 17.1072 31.9387C18.3207 33.1522 18.3384 33.1345 19.552 34.348" stroke="black" stroke-width="1.5" stroke-miterlimit="10" stroke-linecap="round" stroke-linejoin="round"/>
<path d="M115.002 79.6963C113.629 79.6963 113.629 79.6934 112.256 79.6934C110.884 79.6934 110.884 79.7583 109.511 79.7583C108.138 79.7583 108.138 79.803 106.765 79.803" stroke="#8BB3FD" stroke-width="1.5" stroke-miterlimit="10" stroke-linecap="round" stroke-linejoin="round"/>
<path d="M110.847 75.6197C110.847 76.9925 110.918 76.9925 110.918 78.3654C110.918 79.7383 110.821 79.7383 110.821 81.1112C110.821 82.4841 110.866 82.4841 110.866 83.857" stroke="#8BB3FD" stroke-width="1.5" stroke-miterlimit="10" stroke-linecap="round" stroke-linejoin="round"/>
<path d="M113.847 76.8769C112.876 77.8476 112.846 77.8171 111.875 78.7878C110.904 79.7586 110.912 79.7663 109.941 80.7371C108.97 81.7079 108.907 81.6448 107.936 82.6156" stroke="#8BB3FD" stroke-width="1.5" stroke-miterlimit="10" stroke-linecap="round" stroke-linejoin="round"/>
<path d="M107.969 76.8287C108.939 77.7994 108.942 77.7972 109.912 78.7679C110.883 79.7387 110.851 79.7707 111.822 80.7415C112.793 81.7123 112.807 81.6982 113.778 82.669" stroke="#8BB3FD" stroke-width="1.5" stroke-miterlimit="10" stroke-linecap="round" stroke-linejoin="round"/>
<path d="M71.1194 49.7889H69.0777C68.9981 49.7889 68.9217 49.7572 68.8653 49.7009C68.809 49.6445 68.7773 49.5681 68.7773 49.4885C68.7773 49.4088 68.809 49.3324 68.8653 49.2761C68.9217 49.2197 68.9981 49.1881 69.0777 49.1881H71.1194C71.1991 49.1859 71.2764 49.2155 71.3343 49.2703C71.3921 49.3251 71.4259 49.4006 71.428 49.4803C71.4302 49.5599 71.4007 49.6372 71.3459 49.6951C71.2911 49.7529 71.2155 49.7867 71.1359 49.7889H71.1194Z" fill="black"/>
<path d="M70.0985 50.8098C70.0199 50.8079 69.945 50.7756 69.8898 50.7195C69.8346 50.6634 69.8034 50.5881 69.8028 50.5094V48.4677C69.8018 48.4282 69.8085 48.3889 69.8226 48.3521C69.8367 48.3152 69.8579 48.2815 69.885 48.2529C69.9122 48.2242 69.9447 48.2012 69.9807 48.1851C70.0167 48.169 70.0556 48.1601 70.095 48.1591C70.1345 48.158 70.1737 48.1647 70.2106 48.1788C70.2475 48.1929 70.2812 48.2141 70.3098 48.2412C70.3385 48.2684 70.3615 48.3009 70.3776 48.3369C70.3937 48.3729 70.4025 48.4118 70.4036 48.4512V50.5094C70.4036 50.5492 70.3957 50.5887 70.3803 50.6254C70.3649 50.6622 70.3424 50.6955 70.314 50.7235C70.2856 50.7514 70.2519 50.7734 70.2149 50.7883C70.1779 50.8031 70.1384 50.8104 70.0985 50.8098Z" fill="black"/>
<path d="M67.751 53.1573H65.7093C65.6297 53.1573 65.5533 53.1256 65.4969 53.0693C65.4406 53.0129 65.4089 52.9365 65.4089 52.8569C65.4089 52.7772 65.4406 52.7008 65.4969 52.6445C65.5533 52.5881 65.6297 52.5565 65.7093 52.5565H67.751C67.8307 52.5543 67.908 52.5839 67.9658 52.6387C68.0237 52.6934 68.0575 52.769 68.0596 52.8487C68.0618 52.9283 68.0323 53.0056 67.9775 53.0635C67.9227 53.1213 67.8471 53.1551 67.7675 53.1573H67.751Z" fill="black"/>
<path d="M66.7301 54.1781C66.6515 54.1763 66.5766 54.1439 66.5214 54.0879C66.4662 54.0318 66.435 53.9564 66.4344 53.8778V51.836C66.4334 51.7966 66.4401 51.7573 66.4542 51.7205C66.4683 51.6836 66.4895 51.6499 66.5166 51.6212C66.5437 51.5926 66.5763 51.5695 66.6123 51.5535C66.6483 51.5374 66.6872 51.5285 66.7266 51.5274C66.7661 51.5264 66.8053 51.5331 66.8422 51.5472C66.8791 51.5613 66.9128 51.5825 66.9414 51.6096C66.9701 51.6367 66.9931 51.6693 67.0092 51.7053C67.0253 51.7413 67.0341 51.7802 67.0352 51.8196V53.8778C67.0352 53.9176 67.0273 53.957 67.0119 53.9938C66.9965 54.0306 66.974 54.0639 66.9456 54.0918C66.9172 54.1198 66.8835 54.1418 66.8465 54.1566C66.8095 54.1715 66.77 54.1788 66.7301 54.1781Z" fill="black"/>
<path d="M47.9611 52.3149H45.9194C45.8397 52.3149 45.7633 52.2833 45.707 52.227C45.6507 52.1706 45.619 52.0942 45.619 52.0146C45.619 51.9349 45.6507 51.8585 45.707 51.8021C45.7633 51.7458 45.8397 51.7142 45.9194 51.7142H47.9611C48.0408 51.712 48.1181 51.7415 48.1759 51.7963C48.2338 51.8511 48.2675 51.9267 48.2697 52.0063C48.2719 52.086 48.2423 52.1633 48.1875 52.2212C48.1327 52.279 48.0572 52.3128 47.9775 52.3149H47.9611Z" fill="black"/>
<path d="M46.9402 53.3358C46.8616 53.334 46.7867 53.3016 46.7315 53.2455C46.6763 53.1895 46.6451 53.1141 46.6445 53.0354V50.9937C46.6434 50.9543 46.6501 50.915 46.6642 50.8781C46.6783 50.8413 46.6996 50.8076 46.7267 50.7789C46.7538 50.7502 46.7863 50.7272 46.8224 50.7111C46.8584 50.695 46.8972 50.6862 46.9367 50.6851C46.9761 50.684 47.0154 50.6907 47.0523 50.7048C47.0891 50.7189 47.1229 50.7402 47.1515 50.7673C47.1802 50.7944 47.2032 50.8269 47.2193 50.863C47.2354 50.899 47.2442 50.9378 47.2453 50.9773V53.0354C47.2453 53.0753 47.2374 53.1147 47.222 53.1515C47.2066 53.1882 47.1841 53.2215 47.1557 53.2495C47.1273 53.2775 47.0936 53.2995 47.0566 53.3143C47.0196 53.3291 46.9801 53.3364 46.9402 53.3358Z" fill="black"/>
<path d="M98.2377 32.9071H95.4918C95.3846 32.9071 95.2819 32.8645 95.2061 32.7887C95.1303 32.713 95.0878 32.6102 95.0878 32.5031C95.0878 32.3959 95.1303 32.2932 95.2061 32.2174C95.2819 32.1416 95.3846 32.0991 95.4918 32.0991H98.2377C98.3449 32.0961 98.4488 32.1359 98.5267 32.2096C98.6045 32.2833 98.6499 32.3849 98.6528 32.492C98.6557 32.5992 98.616 32.7031 98.5423 32.7809C98.4686 32.8588 98.367 32.9041 98.2598 32.9071H98.2377Z" fill="#FFB92E"/>
<path d="M96.8648 34.2801C96.759 34.2776 96.6583 34.2341 96.5841 34.1587C96.5098 34.0833 96.4679 33.9819 96.4671 33.8761V31.1301C96.4656 31.0771 96.4746 31.0242 96.4936 30.9747C96.5126 30.9251 96.5411 30.8798 96.5776 30.8412C96.6141 30.8027 96.6578 30.7717 96.7063 30.7501C96.7547 30.7284 96.807 30.7165 96.86 30.7151C96.9131 30.7136 96.9659 30.7226 97.0155 30.7416C97.065 30.7606 97.1104 30.7891 97.1489 30.8256C97.1875 30.8621 97.2185 30.9058 97.2401 30.9543C97.2617 31.0027 97.2736 31.055 97.2751 31.108V33.8761C97.2751 33.9297 97.2644 33.9827 97.2437 34.0322C97.223 34.0816 97.1927 34.1264 97.1545 34.164C97.1163 34.2016 97.0711 34.2313 97.0213 34.2512C96.9716 34.2711 96.9183 34.2809 96.8648 34.2801Z" fill="#FFB92E"/>
<path d="M17.7789 60.3362H15.0329C14.9258 60.3362 14.823 60.2937 14.7472 60.2179C14.6715 60.1421 14.6289 60.0394 14.6289 59.9322C14.6289 59.8251 14.6715 59.7223 14.7472 59.6465C14.823 59.5708 14.9258 59.5282 15.0329 59.5282H17.7789C17.886 59.5253 17.99 59.565 18.0678 59.6387C18.1456 59.7124 18.191 59.814 18.1939 59.9212C18.1969 60.0283 18.1571 60.1322 18.0834 60.2101C18.0097 60.2879 17.9081 60.3333 17.801 60.3362H17.7789Z" fill="black"/>
<path d="M16.4058 61.7092C16.3 61.7068 16.1994 61.6632 16.1251 61.5878C16.0509 61.5124 16.0089 61.4111 16.0081 61.3052V58.5593C16.0067 58.5062 16.0157 58.4534 16.0347 58.4038C16.0536 58.3542 16.0822 58.3089 16.1187 58.2704C16.1552 58.2318 16.1989 58.2008 16.2473 58.1792C16.2958 58.1575 16.348 58.1457 16.4011 58.1442C16.4542 58.1428 16.507 58.1518 16.5566 58.1707C16.6061 58.1897 16.6515 58.2182 16.69 58.2547C16.7286 58.2912 16.7595 58.3349 16.7812 58.3834C16.8028 58.4319 16.8147 58.4841 16.8162 58.5372V61.3052C16.8162 61.3588 16.8055 61.4119 16.7848 61.4613C16.7641 61.5107 16.7338 61.5556 16.6956 61.5932C16.6574 61.6308 16.6121 61.6604 16.5624 61.6803C16.5126 61.7002 16.4594 61.7101 16.4058 61.7092Z" fill="black"/>
<path d="M53.856 57.7887H51.8143C51.7346 57.7887 51.6582 57.7571 51.6019 57.7007C51.5456 57.6444 51.5139 57.568 51.5139 57.4883C51.5139 57.4087 51.5456 57.3323 51.6019 57.2759C51.6582 57.2196 51.7346 57.1879 51.8143 57.1879H53.856C53.9357 57.1858 54.0129 57.2153 54.0708 57.2701C54.1287 57.3249 54.1624 57.4005 54.1646 57.4801C54.1668 57.5598 54.1372 57.6371 54.0824 57.6949C54.0276 57.7528 53.9521 57.7865 53.8724 57.7887H53.856Z" fill="black"/>
<path d="M52.8351 58.8096C52.7565 58.8078 52.6816 58.7754 52.6264 58.7193C52.5712 58.6633 52.54 58.5879 52.5394 58.5092V56.4675C52.5383 56.4281 52.545 56.3888 52.5591 56.3519C52.5732 56.3151 52.5945 56.2814 52.6216 56.2527C52.6487 56.224 52.6812 56.201 52.7173 56.1849C52.7533 56.1688 52.7921 56.16 52.8316 56.1589C52.871 56.1578 52.9103 56.1645 52.9472 56.1786C52.984 56.1927 53.0178 56.214 53.0464 56.2411C53.0751 56.2682 53.0981 56.3007 53.1142 56.3368C53.1303 56.3728 53.1391 56.4116 53.1402 56.4511V58.5092C53.1402 58.5491 53.1323 58.5885 53.1169 58.6253C53.1015 58.662 53.079 58.6953 53.0506 58.7233C53.0222 58.7513 52.9885 58.7733 52.9515 58.7881C52.9145 58.8029 52.875 58.8102 52.8351 58.8096Z" fill="black"/>
<circle cx="52.9875" cy="50.8956" r="0.75" stroke="black" stroke-width="0.605304"/>
<circle cx="83.8875" cy="24.0862" r="1" stroke="#FFB92E" stroke-width="1.20007"/>
<circle cx="1.60003" cy="48.3153" r="1" stroke="#FFB92E" stroke-width="1.20007"/>
<circle cx="66.4616" cy="57.6329" r="0.75" stroke="black" stroke-width="0.605304"/>
<defs>
<clipPath id="clip0">
<rect width="27.79" height="10.9476" fill="white" transform="translate(83.0934 51.1062)"/>
</clipPath>
</defs>
</svg>
